<?xml version="1.0" encoding="utf-8"?>
<!-- Generator: Adobe Illustrator 25.0.0, SVG Export Plug-In . SVG Version: 6.00 Build 0)  -->
<svg version="1.1" id="Camada_1" xmlns="http://www.w3.org/2000/svg" xmlns:xlink="http://www.w3.org/1999/xlink" x="0px" y="0px"
	 viewBox="0 0 80 80" style="enable-background:new 0 0 80 80;" xml:space="preserve">
<style type="text/css">
	.st0{fill:#FFFFFF;}
</style>
<path class="st0" d="M74.7,26c-6.8-7.6-18-9.1-26.6-3.8c-1.8,1.1-3.6,2.7-5.1,4.6l-3,3.7l-7.6,9.5l-4.6,5.7c-0.7,0.9-1.5,1.6-2.2,2
	c-3.7,2.3-8.5,1.6-11.5-1.7c-3-3.4-3-8.6,0-12c1.7-1.9,4.2-3,6.7-3c1.7,0,3.3,0.5,4.8,1.3c0.8,0.4,1.5,1.1,2.2,2l1.2,1.5l7.6-9.4
	c-1.5-1.7-3.1-3.2-4.8-4.2c-8.6-5.3-19.8-3.7-26.6,3.8c-7,7.9-7,20.2,0,28c4.1,4.6,9.8,7,15.6,7c3.8,0,7.6-1,11-3.2
	c1.8-1.1,3.6-2.7,5.1-4.6l3-3.7l7.7-9.5l4.6-5.7c0.7-0.9,1.5-1.6,2.2-2c3.7-2.3,8.5-1.6,11.5,1.7c3,3.4,3,8.6,0,12
	c-3,3.2-7.7,3.9-11.5,1.7c-0.8-0.4-1.5-1.1-2.2-2L51,44.1l-7.7,9.5c1.5,1.8,3.1,3.2,4.8,4.3c8.6,5.3,19.8,3.7,26.6-3.8
	C81.8,46.1,81.8,33.8,74.7,26z"/>
</svg>
